 <svg version="1.0" xmlns="http://www.w3.org/2000/svg" width="300.000000pt" height="300.000000pt" viewBox="0 0 300.000000 300.000000" preserveAspectRatio="xMidYMid meet">  <g transform="translate(0.000000,300.000000) scale(0.100000,-0.100000)" fill="#ff0000" stroke="none"> <path d="M480 2607 c-31 -29 -76 -74 -100 -102 -24 -27 2 -5 58 50 56 55 102 101 102 102 0 6 -7 0 -60 -50z"></path> <path d="M2555 2562 c104 -107 138 -135 64 -54 -55 60 -55 59 -114 112 -27 24 -5 -2 50 -58z"></path> <path d="M303 2413 c-42 -55 -75 -103 -70 -103 3 0 28 32 56 70 53 74 63 97 14 33z"></path> <path d="M1955 2426 c-113 -36 -223 -116 -371 -268 -137 -141 -240 -267 -481 -589 -230 -306 -322 -417 -439 -529 -97 -94 -187 -159 -267 -195 -146 -64 -294 -55 -372 23 l-27 26 4 -29 c2 -25 13 -35 58 -60 49 -27 64 -30 140 -30 201 1 382 114 621 385 70 81 177 216 359 455 344 452 495 617 664 727 93 60 199 85 226 53 19 -23 6 -76 -51 -210 -109 -257 -187 -500 -218 -685 -16 -97 -22 -112 -67 -180 -70 -105 -151 -247 -169 -299 -40 -114 3 -221 90 -221 44 0 91 33 116 82 21 39 23 63 30 271 l8 228 60 82 c146 203 425 503 609 658 176 147 354 252 464 272 61 12 81 37 30 37 -60 0 -192 -57 -312 -135 -218 -140 -549 -462 -758 -737 -28 -37 -55 -76 -61 -85 -20 -36 -18 -5 6 102 32 144 115 393 193 581 72 171 84 230 51 263 -24 24 -73 27 -136 7z m-184 -1296 c-8 -214 -18 -252 -71 -284 -39 -22 -67 -20 -95 9 -53 52 -25 152 103 368 35 60 65 107 67 105 1 -2 -1 -91 -4 -198z"></path> <path d="M2918 2133 c-253 -425 -420 -880 -435 -1188 -5 -96 -2 -132 11 -177 36 -123 132 -198 265 -206 42 -2 94 1 117 7 54 15 124 66 124 91 0 18 -5 16 -45 -15 -58 -44 -113 -58 -195 -53 -104 8 -175 53 -224 143 -18 35 -21 56 -21 170 0 149 21 261 87 465 76 233 163 426 310 682 64 111 89 164 86 183 -2 22 -15 6 -80 -102z"></path> <path d="M381 493 c55 -61 55 -60 114 -113 28 -24 5 2 -50 58 -104 107 -138 135 -64 55z"></path> <path d="M2550 433 c-52 -53 -72 -77 -45 -53 61 54 62 55 109 108 66 72 35 46 -64 -55z"></path> </g> </svg> 